<svg width="1200" height="630" viewBox="0 0 1200 630" fill="none" xmlns="http://www.w3.org/2000/svg">
  <!-- Page background -->
  <rect width="1200" height="630" fill="#0a0a0a"/>

  <!-- Subtle vignette, matching the hero fade tone -->
  <rect width="1200" height="630" fill="url(#vignette)"/>

  <!-- Monogram: reuse the site icon at large scale, top-left -->
  <g transform="translate(96, 80) scale(0.43)">
    <rect width="512" height="512" rx="65" fill="white"/>
    <path d="M109.4 375.664C97.9653 375.664 89.2613 372.763 83.288 366.96C77.4853 361.328 74.584 352.88 74.584 341.616V276.592C74.584 271.984 73.56 268.656 71.512 266.608C69.6347 264.56 66.8187 263.536 63.064 263.536H54.36V248.176H63.064C66.8187 248.176 69.6347 247.152 71.512 245.104C73.56 243.056 74.584 239.728 74.584 235.12V170.096C74.584 158.661 77.4853 150.128 83.288 144.496C89.2613 138.864 97.9653 136.048 109.4 136.048H119.128V151.152H112.216C105.731 151.152 100.867 152.944 97.624 156.528C94.3813 160.112 92.76 165.147 92.76 171.632V234.864C92.76 239.984 92.1627 243.995 90.968 246.896C89.7733 249.797 87.896 252.016 85.336 253.552C82.9467 255.088 79.7893 256.283 75.864 257.136V254.576C79.7893 255.259 82.9467 256.453 85.336 258.16C87.896 259.696 89.7733 261.915 90.968 264.816C92.1627 267.717 92.76 271.728 92.76 276.848V340.08C92.76 346.565 94.3813 351.6 97.624 355.184C100.867 358.768 105.731 360.56 112.216 360.56H119.128V375.664H109.4Z" fill="black"/>
    <path d="M401.6 375.664C413.035 375.664 421.739 372.763 427.712 366.96C433.515 361.328 436.416 352.88 436.416 341.616L436.416 276.592C436.416 271.984 437.44 268.656 439.488 266.608C441.365 264.56 444.181 263.536 447.936 263.536L456.64 263.536L456.64 248.176L447.936 248.176C444.181 248.176 441.365 247.152 439.488 245.104C437.44 243.056 436.416 239.728 436.416 235.12L436.416 170.096C436.416 158.661 433.515 150.128 427.712 144.496C421.739 138.864 413.035 136.048 401.6 136.048L391.872 136.048L391.872 151.152L398.784 151.152C405.269 151.152 410.133 152.944 413.376 156.528C416.619 160.112 418.24 165.147 418.24 171.632L418.24 234.864C418.24 239.984 418.837 243.995 420.032 246.896C421.227 249.797 423.104 252.016 425.664 253.552C428.053 255.088 431.211 256.283 435.136 257.136L435.136 254.576C431.211 255.259 428.053 256.453 425.664 258.16C423.104 259.696 421.227 261.915 420.032 264.816C418.837 267.717 418.24 271.728 418.24 276.848L418.24 340.08C418.24 346.565 416.619 351.6 413.376 355.184C410.133 358.768 405.269 360.56 398.784 360.56L391.872 360.56L391.872 375.664L401.6 375.664Z" fill="black"/>
    <path d="M158.691 344V236.25H136.441V216.5H158.691V197.75C158.691 186.417 161.858 177.583 168.191 171.25C174.691 164.75 183.608 161.5 194.941 161.5H226.441V181.25H199.441C193.775 181.25 189.441 182.833 186.441 186C183.441 189.167 181.941 193.583 181.941 199.25V216.5H221.441V236.25H181.941V344H158.691ZM295.391 347C285.724 347 276.891 345.5 268.891 342.5C260.891 339.333 253.974 334.75 248.141 328.75C242.307 322.75 237.724 315.583 234.391 307.25C231.224 298.75 229.641 289.25 229.641 278.75C229.641 265.417 232.307 253.917 237.641 244.25C243.141 234.417 250.557 226.833 259.891 221.5C269.391 216.167 279.974 213.5 291.641 213.5C298.141 213.5 304.307 214.583 310.141 216.75C316.141 218.917 321.474 221.917 326.141 225.75C330.807 229.583 334.474 234.083 337.141 239.25H337.641V161.5H360.641V279.5C360.641 293.667 357.724 305.833 351.891 316C346.224 326 338.474 333.667 328.641 339C318.974 344.333 307.891 347 295.391 347ZM295.391 327.25C303.224 327.25 310.307 325.333 316.641 321.5C322.974 317.667 327.974 312.25 331.641 305.25C335.474 298.25 337.391 290 337.391 280.5C337.391 270.833 335.474 262.5 331.641 255.5C327.974 248.333 322.974 242.833 316.641 239C310.307 235.167 303.141 233.25 295.141 233.25C287.307 233.25 280.141 235.25 273.641 239.25C267.307 243.25 262.224 248.75 258.391 255.75C254.724 262.75 252.891 270.917 252.891 280.25C252.891 289.917 254.807 298.25 258.641 305.25C262.474 312.25 267.557 317.667 273.891 321.5C280.391 325.333 287.557 327.25 295.391 327.25Z" fill="black"/>
  </g>

  <!-- Name -->
  <text x="96" y="420" fill="#fafafa" font-family="'Google Sans', system-ui, -apple-system, 'Segoe UI', Roboto, Arial, sans-serif" font-size="84" font-weight="500" letter-spacing="-2">Daniel Freak</text>

  <!-- Role -->
  <text x="98" y="478" fill="#737373" font-family="'Google Sans', system-ui, -apple-system, 'Segoe UI', Roboto, Arial, sans-serif" font-size="34" font-weight="400">Full-Stack Developer</text>

  <!-- Divider -->
  <rect x="100" y="520" width="64" height="2" fill="#2a2a2a"/>

  <!-- Tagline -->
  <text x="100" y="566" fill="#737373" font-family="'Google Sans', system-ui, -apple-system, 'Segoe UI', Roboto, Arial, sans-serif" font-size="26" font-weight="400">Building fast, accessible products on the web</text>

  <defs>
    <radialGradient id="vignette" cx="0.3" cy="0.35" r="0.9">
      <stop offset="0" stop-color="#161616" stop-opacity="0.5"/>
      <stop offset="1" stop-color="#0a0a0a" stop-opacity="0"/>
    </radialGradient>
  </defs>
</svg>
